<svg xmlns="http://www.w3.org/2000/svg" viewBox="0 0 100 100">
    <rect width="100" height="100" rx="20" fill="#0B132B"/>
    
    <g transform="translate(50, 55)">
        <path d="M -10,20 Q 0,45 10,20 Q 0,35 -10,20" fill="#FFD166"/>
        <path d="M -5,20 Q 0,35 5,20 Q 0,28 -5,20" fill="#FF9F1C"/>
        
        <path d="M -12,5 L -22,25 L -10,20 Z" fill="#47A8BD"/>
        <path d="M 12,5 L 22,25 L 10,20 Z" fill="#47A8BD"/>
        <path d="M -2,15 L 2,15 L 0,28 Z" fill="#2E4057"/>
        
        <path d="M -14,20 C -14,-15 0,-40 0,-40 C 0,-40 14,-15 14,20 Z" fill="#F8F9FA"/>
        
        <circle cx="0" cy="-5" r="5" fill="#0B132B" stroke="#47A8BD" stroke-width="2"/>
    </g>
    
    <circle cx="25" cy="25" r="1.5" fill="#FFD166"/>
    <circle cx="75" cy="35" r="1" fill="#F8F9FA"/>
    <circle cx="20" cy="70" r="2" fill="#47A8BD"/>
    <circle cx="80" cy="75" r="1.5" fill="#FFD166"/>
</svg>
